<svg xmlns="http://www.w3.org/2000/svg" viewBox="0 0 32 32">
  <defs>
    <clipPath id="rounded"><rect width="32" height="32" rx="4"/></clipPath>
  </defs>
  <g clip-path="url(#rounded)">
    <!-- 13 equal stripes: 32/13 ≈ 2.46px each -->
    <rect y="0"     width="32" height="2.46" fill="#B22234"/>
    <rect y="2.46"  width="32" height="2.46" fill="#FFFFFF"/>
    <rect y="4.92"  width="32" height="2.46" fill="#B22234"/>
    <rect y="7.38"  width="32" height="2.46" fill="#FFFFFF"/>
    <rect y="9.85"  width="32" height="2.46" fill="#B22234"/>
    <rect y="12.31" width="32" height="2.46" fill="#FFFFFF"/>
    <rect y="14.77" width="32" height="2.46" fill="#B22234"/>
    <rect y="17.23" width="32" height="2.46" fill="#FFFFFF"/>
    <rect y="19.69" width="32" height="2.46" fill="#B22234"/>
    <rect y="22.15" width="32" height="2.46" fill="#FFFFFF"/>
    <rect y="24.62" width="32" height="2.46" fill="#B22234"/>
    <rect y="27.08" width="32" height="2.46" fill="#FFFFFF"/>
    <rect y="29.54" width="32" height="2.46" fill="#B22234"/>
    <!-- Blue canton (covers top 7 stripes height) -->
    <rect width="14" height="17.23" fill="#3C3B6E"/>
    <!-- Stars (simplified as dots) -->
    <g fill="#FFFFFF">
      <circle cx="2.5" cy="2" r="0.8"/>
      <circle cx="5.5" cy="2" r="0.8"/>
      <circle cx="8.5" cy="2" r="0.8"/>
      <circle cx="11.5" cy="2" r="0.8"/>
      <circle cx="4" cy="3.5" r="0.8"/>
      <circle cx="7" cy="3.5" r="0.8"/>
      <circle cx="10" cy="3.5" r="0.8"/>
      <circle cx="2.5" cy="5" r="0.8"/>
      <circle cx="5.5" cy="5" r="0.8"/>
      <circle cx="8.5" cy="5" r="0.8"/>
      <circle cx="11.5" cy="5" r="0.8"/>
      <circle cx="4" cy="6.5" r="0.8"/>
      <circle cx="7" cy="6.5" r="0.8"/>
      <circle cx="10" cy="6.5" r="0.8"/>
      <circle cx="2.5" cy="8" r="0.8"/>
      <circle cx="5.5" cy="8" r="0.8"/>
      <circle cx="8.5" cy="8" r="0.8"/>
      <circle cx="11.5" cy="8" r="0.8"/>
      <circle cx="4" cy="9.5" r="0.8"/>
      <circle cx="7" cy="9.5" r="0.8"/>
      <circle cx="10" cy="9.5" r="0.8"/>
      <circle cx="2.5" cy="11" r="0.8"/>
      <circle cx="5.5" cy="11" r="0.8"/>
      <circle cx="8.5" cy="11" r="0.8"/>
      <circle cx="11.5" cy="11" r="0.8"/>
      <circle cx="4" cy="12.5" r="0.8"/>
      <circle cx="7" cy="12.5" r="0.8"/>
      <circle cx="10" cy="12.5" r="0.8"/>
      <circle cx="2.5" cy="14" r="0.8"/>
      <circle cx="5.5" cy="14" r="0.8"/>
      <circle cx="8.5" cy="14" r="0.8"/>
      <circle cx="11.5" cy="14" r="0.8"/>
      <circle cx="4" cy="15.5" r="0.8"/>
      <circle cx="7" cy="15.5" r="0.8"/>
      <circle cx="10" cy="15.5" r="0.8"/>
    </g>
  </g>
</svg>
